<svg width="28" height="28" viewBox="0 0 28 28" fill="none" xmlns="http://www.w3.org/2000/svg">
<path d="M25.1724 8.7931L13.5862 3L2 8.7931V10.9655L2.72414 11.3276V18.569C2.72414 19.1689 3.21045 19.6552 3.81034 19.6552H4.53448C5.13438 19.6552 5.62069 19.1689 5.62069 18.569V12.7759L12.1379 16.0345V22.9138C12.1379 23.5137 12.6242 24 13.2241 24H13.9483C14.5482 24 15.0345 23.5137 15.0345 22.9138V16.0345L21.5517 12.7759V18.569C21.5517 19.1689 22.038 19.6552 22.6379 19.6552H23.3621C23.962 19.6552 24.4483 19.1689 24.4483 18.569V11.3276L25.1724 10.9655V8.7931Z" fill="#654B4B"/>
</svg>
