<svg width="104" height="42" viewBox="0 0 104 42" fill="none" xmlns="http://www.w3.org/2000/svg">
<path d="M55.0909 27.1875C54.9716 26.7727 54.804 26.4062 54.5881 26.0881C54.3722 25.7642 54.108 25.4915 53.7955 25.2699C53.4886 25.0426 53.1364 24.8693 52.7386 24.75C52.3466 24.6307 51.9119 24.571 51.4347 24.571C50.5426 24.571 49.7585 24.7926 49.0824 25.2358C48.4119 25.679 47.8892 26.3239 47.5142 27.1705C47.1392 28.0114 46.9517 29.0398 46.9517 30.2557C46.9517 31.4716 47.1364 32.5057 47.5057 33.358C47.875 34.2102 48.3977 34.8608 49.0739 35.3097C49.75 35.7528 50.5483 35.9744 51.4688 35.9744C52.304 35.9744 53.017 35.8267 53.608 35.5312C54.2045 35.2301 54.6591 34.8068 54.9716 34.2614C55.2898 33.7159 55.4489 33.071 55.4489 32.3267L56.1989 32.4375H51.6989V29.6591H59.0028V31.858C59.0028 33.392 58.679 34.7102 58.0312 35.8125C57.3835 36.9091 56.4915 37.7557 55.3551 38.3523C54.2188 38.9432 52.9176 39.2386 51.4517 39.2386C49.8153 39.2386 48.3778 38.8778 47.1392 38.1562C45.9006 37.429 44.9347 36.3977 44.2415 35.0625C43.554 33.7216 43.2102 32.1307 43.2102 30.2898C43.2102 28.875 43.4148 27.6136 43.8239 26.5057C44.2386 25.392 44.8182 24.4489 45.5625 23.6761C46.3068 22.9034 47.1733 22.3153 48.1619 21.9119C49.1506 21.5085 50.2216 21.3068 51.375 21.3068C52.3636 21.3068 53.2841 21.4517 54.1364 21.7415C54.9886 22.0256 55.7443 22.429 56.4034 22.9517C57.0682 23.4744 57.6108 24.0966 58.0312 24.8182C58.4517 25.5341 58.7216 26.3239 58.8409 27.1875H55.0909Z" fill="#393636"/>
<path d="M61.7067 39V25.9091H65.2266V28.1932H65.3629C65.6016 27.3807 66.0021 26.767 66.5646 26.3523C67.1271 25.9318 67.7749 25.7216 68.5078 25.7216C68.6896 25.7216 68.8857 25.733 69.0959 25.7557C69.3061 25.7784 69.4908 25.8097 69.6499 25.8494V29.071C69.4794 29.0199 69.2436 28.9744 68.9425 28.9347C68.6413 28.8949 68.3658 28.875 68.1158 28.875C67.5817 28.875 67.1044 28.9915 66.684 29.2244C66.2692 29.4517 65.9396 29.7699 65.6953 30.179C65.4567 30.5881 65.3374 31.0597 65.3374 31.5938V39H61.7067Z" fill="#393636"/>
<path d="M76.8324 39.2557C75.5085 39.2557 74.3636 38.9744 73.3977 38.4119C72.4375 37.8438 71.696 37.054 71.1733 36.0426C70.6506 35.0256 70.3892 33.8466 70.3892 32.5057C70.3892 31.1534 70.6506 29.9716 71.1733 28.9602C71.696 27.9432 72.4375 27.1534 73.3977 26.5909C74.3636 26.0227 75.5085 25.7386 76.8324 25.7386C78.1562 25.7386 79.2983 26.0227 80.2585 26.5909C81.2244 27.1534 81.9688 27.9432 82.4915 28.9602C83.0142 29.9716 83.2756 31.1534 83.2756 32.5057C83.2756 33.8466 83.0142 35.0256 82.4915 36.0426C81.9688 37.054 81.2244 37.8438 80.2585 38.4119C79.2983 38.9744 78.1562 39.2557 76.8324 39.2557ZM76.8494 36.4432C77.4517 36.4432 77.9545 36.2727 78.358 35.9318C78.7614 35.5852 79.0653 35.1136 79.2699 34.517C79.4801 33.9205 79.5852 33.2415 79.5852 32.4801C79.5852 31.7188 79.4801 31.0398 79.2699 30.4432C79.0653 29.8466 78.7614 29.375 78.358 29.0284C77.9545 28.6818 77.4517 28.5085 76.8494 28.5085C76.2415 28.5085 75.7301 28.6818 75.3153 29.0284C74.9062 29.375 74.5966 29.8466 74.3864 30.4432C74.1818 31.0398 74.0795 31.7188 74.0795 32.4801C74.0795 33.2415 74.1818 33.9205 74.3864 34.517C74.5966 35.1136 74.9062 35.5852 75.3153 35.9318C75.7301 36.2727 76.2415 36.4432 76.8494 36.4432Z" fill="#393636"/>
<path d="M87.8906 39L84.3281 25.9091H88.0014L90.0298 34.7045H90.1491L92.2628 25.9091H95.8679L98.0156 34.6534H98.1264L100.121 25.9091H103.786L100.232 39H96.3878L94.1378 30.767H93.9759L91.7259 39H87.8906Z" fill="#393636"/>
<path d="M0 5C0 2.23858 2.23858 0 5 0H37C39.7614 0 42 2.23858 42 5V37C42 39.7614 39.7614 42 37 42H5C2.23858 42 0 39.7614 0 37V5Z" fill="#D18411"/>
<path d="M10.446 38L5.4517 20.5455H9.48295L12.3722 32.6733H12.517L15.7045 20.5455H19.1562L22.3352 32.6989H22.4886L25.3778 20.5455H29.4091L24.4148 38H20.8182L17.4943 26.5881H17.358L14.0426 38H10.446Z" fill="white"/>
<path d="M35.8757 38.2557C34.5291 38.2557 33.37 37.983 32.3984 37.4375C31.4325 36.8864 30.6882 36.108 30.1655 35.1023C29.6428 34.0909 29.3814 32.8949 29.3814 31.5142C29.3814 30.1676 29.6428 28.9858 30.1655 27.9688C30.6882 26.9517 31.424 26.1591 32.3729 25.5909C33.3274 25.0227 34.4467 24.7386 35.7308 24.7386C36.5945 24.7386 37.3984 24.8778 38.1428 25.1562C38.8928 25.429 39.5462 25.8409 40.103 26.392C40.6655 26.9432 41.103 27.6364 41.4155 28.4716C41.728 29.3011 41.8842 30.2727 41.8842 31.3864V32.3835H30.8303V30.1335H38.4666C38.4666 29.6108 38.353 29.1477 38.1257 28.7443C37.8984 28.3409 37.5831 28.0256 37.1797 27.7983C36.782 27.5653 36.3189 27.4489 35.7905 27.4489C35.2393 27.4489 34.7507 27.5767 34.3246 27.8324C33.9041 28.0824 33.5746 28.4205 33.3359 28.8466C33.0973 29.267 32.9751 29.7358 32.9695 30.2528V32.392C32.9695 33.0398 33.0888 33.5994 33.3274 34.071C33.5717 34.5426 33.9155 34.9062 34.3587 35.1619C34.8018 35.4176 35.3274 35.5455 35.9354 35.5455C36.3388 35.5455 36.7081 35.4886 37.0433 35.375C37.3786 35.2614 37.6655 35.0909 37.9041 34.8636C38.1428 34.6364 38.3246 34.358 38.4496 34.0284L41.8075 34.25C41.6371 35.0568 41.2876 35.7614 40.7592 36.3636C40.2365 36.9602 39.5604 37.4261 38.7308 37.7614C37.907 38.0909 36.9553 38.2557 35.8757 38.2557Z" fill="white"/>
</svg>
