<svg width="24" height="24" viewBox="0 0 25 24" fill="none" xmlns="http://www.w3.org/2000/svg">
<path d="M24.6322 5.28913C24.4091 4.90263 24.0897 4.58054 23.705 4.35428C23.3204 4.12802 22.8837 4.00532 22.4375 3.99813H5.91276L5.16398 1.08048C5.08833 0.798837 4.91954 0.551103 4.68512 0.377629C4.4507 0.204155 4.16444 0.115163 3.87298 0.125147H1.291C0.948602 0.125147 0.620232 0.261162 0.378124 0.50327C0.136015 0.745379 0 1.07375 0 1.41614C0 1.75854 0.136015 2.0869 0.378124 2.32901C0.620232 2.57112 0.948602 2.70714 1.291 2.70714H2.89183L6.45498 15.9527C6.53063 16.2344 6.69941 16.4821 6.93384 16.6556C7.16826 16.8291 7.45451 16.9181 7.74597 16.9081H19.3649C19.6033 16.9074 19.8369 16.8406 20.0397 16.7153C20.2425 16.59 20.4066 16.4109 20.5139 16.198L24.7484 7.72911C24.9319 7.34441 25.0174 6.92026 24.9971 6.49451C24.9768 6.06875 24.8514 5.65464 24.6322 5.28913Z" fill="#654B4B"/>
<path d="M7.10049 23.3631C8.16999 23.3631 9.03699 22.4961 9.03699 21.4266C9.03699 20.3571 8.16999 19.4901 7.10049 19.4901C6.031 19.4901 5.164 20.3571 5.164 21.4266C5.164 22.4961 6.031 23.3631 7.10049 23.3631Z" fill="#654B4B"/>
<path d="M20.0104 23.3631C21.0799 23.3631 21.9469 22.4961 21.9469 21.4266C21.9469 20.3571 21.0799 19.4901 20.0104 19.4901C18.9409 19.4901 18.0739 20.3571 18.0739 21.4266C18.0739 22.4961 18.9409 23.3631 20.0104 23.3631Z" fill="#654B4B"/>
</svg>
